<svg width="121" height="121" viewBox="0 0 121 121" fill="none" xmlns="http://www.w3.org/2000/svg">
<path d="M112.626 0H10.6264C3.42679 0.8 0.959612 6.66667 0.625977 9.5V53.5C2.79264 53.3333 6.9 54.9 6.5 60.5C6.1 66.1 2.12628 66.6667 0.126431 66.5C-0.040236 79 -0.173569 105.5 0.626431 111.5C1.42643 117.5 6.95976 120 9.62643 120.5H111.626C117.226 120.5 119.96 114.5 120.626 111.5V66.5C118.293 66.5 113.726 65.2 114.126 60C114.526 54.8 118.626 53.5 120.626 53.5C120.793 41.5 121.026 15.9 120.626 9.5C120.226 3.1 115.126 0.5 112.626 0Z" fill="white"/>
</svg>
